<?xml version="1.0" encoding="utf-8"?>
<?xml-stylesheet type="text/xsl" href="rss1.xsl"?>
<rss version="2.0" xmlns:atom="http://www.w3.org/2005/Atom" xmlns:content="http://purl.org/rss/1.0/modules/content/" xmlns:dc="http://purl.org/dc/elements/1.1/" xmlns:media="http://search.yahoo.com/mrss/">
<channel>
 <title>Getty</title>
 <link>http://www.gettyimg.com/</link>
 <atom:link href="http://www.gettyimg.com/" rel="self" type="application/rss+xml" />

 
                <item>
                <title><![CDATA[【VEVO】WEB-RiP - Green Day - Jesus of Suburbia [Full Version] (VEVO-1080p)]]></title>
                <link><![CDATA[https://sharemania.us/threads/green-day-jesus-of-suburbia-full-version-vevo-1080p.238474/]]></link>
                <description><![CDATA[<article>
<blockquote class="messageText SelectQuoteContainer ugc baseHtml">
<div style="text-align: center"><img src="https://i.gyazo.com/2c11bb89047fc0546242769f5b6eb0af.png" class="bbCodeImage LbImage" alt="[​IMG]" data-url="https://i.gyazo.com/2c11bb89047fc0546242769f5b6eb0af.png" style=""> <br>
<div class="bbCodeBlock bbCodeCode">
<div class="type">Code:</div>
<pre>General
Format                         : MPEG-4
Format profile                 : Base Media
Codec ID                       : isom (isom/iso2/avc1/mp41)
File size                      : 385 MiB
Duration                       : 11 min 47 s
Overall bit rate               : 4 563 kb/s
Frame rate                     : 25.000 FPS
Writing application            : Lavf56.16.102

Video
ID                             : 1
Format                         : AVC
Format/Info                    : Advanced Video Codec
Format profile                 : Main@L4
Format settings                : CABAC / 4 Ref Frames
Format settings, CABAC         : Yes
Format settings, Reference fra : 4 frames
Codec ID                       : avc1
Codec ID/Info                  : Advanced Video Coding
Duration                       : 11 min 47 s
Bit rate                       : 4 420 kb/s
Width                          : 1 920 pixels
Height                         : 1 080 pixels
Display aspect ratio           : 16:9
Frame rate mode                : Constant
Frame rate                     : 25.000 FPS
Color space                    : YUV
Chroma subsampling             : 4:2:0
Bit depth                      : 8 bits
Scan type                      : Progressive
Bits/(Pixel*Frame)             : 0.085
Stream size                    : 374 MiB (97%)
Writing library                : x264 core 144 r2 40bb568
Encoding settings              : cabac=1 / ref=3 / deblock=1:0:0 / analyse=0x1:0x131 / me=umh / subme=10 / psy=1 / psy_rd=1.00:0.00 / mixed_ref=1 / me_range=24 / chroma_me=1 / trellis=2 / 8x8dct=0 / cqm=0 / deadzone=21,11 / fast_pskip=1 / chroma_qp_offset=-2 / threads=6 / lookahead_threads=1 / sliced_threads=0 / nr=0 / decimate=1 / interlaced=0 / bluray_compat=0 / constrained_intra=0 / bframes=3 / b_pyramid=2 / b_adapt=1 / b_bias=0 / direct=1 / weightb=1 / open_gop=0 / weightp=2 / keyint=125 / keyint_min=12 / scenecut=40 / intra_refresh=0 / rc_lookahead=60 / rc=abr / mbtree=1 / bitrate=4420 / ratetol=1.0 / qcomp=0.60 / qpmin=0 / qpmax=69 / qpstep=4 / vbv_maxrate=5200 / vbv_bufsize=5200 / nal_hrd=none / filler=0 / ip_ratio=1.40 / aq=1:1.00
Language                       : English
Codec configuration box        : avcC

Audio
ID                             : 2
Format                         : AAC LC
Format/Info                    : Advanced Audio Codec Low Complexity
Codec ID                       : mp4a-40-2
Duration                       : 11 min 47 s
Bit rate mode                  : Constant
Bit rate                       : 128 kb/s
Channel(s)                     : 2 channels
Channel layout                 : L R
Sampling rate                  : 44.1 kHz
Frame rate                     : 43.066 FPS (1024 SPF)
Compression mode               : Lossy
Stream size                    : 10.8 MiB (3%)
Language                       : English
Default                        : Yes
Alternate group                : 1</pre>
</div>
<div class="bbCodeBlock bbCodeVfcHH HiddenContent">
<div class="attribution type">Hidden Content:</div>
<blockquote>You must either reply or click 'Like' to see the hidden information contained here.</blockquote>
</div></div>
<div class="messageTextEndMarker">&nbsp;</div>
</blockquote>
</article>]]></description>
                <author><![CDATA[Rey619Spear]]></author>
                </item>

                
                <item>
                <title><![CDATA[【Requests】[REQ VID] - Little House on the Prairie S1-9 720p WEB-DL]]></title>
                <link><![CDATA[https://sharemania.us/threads/little-house-on-the-prairie-s1-9-720p-web-dl.238475/]]></link>
                <description><![CDATA[<article>
<blockquote class="messageText SelectQuoteContainer ugc baseHtml">
Hi all, would love to watch classic this with my girls. Currently I got one season in terrible 480 XviD. I can also find HD versions, but they’re all BD rips and enormous in size. Thus I’m looking for a decently sized 720p WEB-DL.<br>
<br>
Currently, it may be found in HD on Amazon Prime and Peacock:<br>
<a href="https://www.justwatch.com/us/tv-show/little-house-on-the-prairie/season-1" target="_blank" class="externalLink" rel="nofollow">https://www.justwatch.com/us/tv-show/little-house-on-the-prairie/season-1</a><br>
<br>
Would much appreciate it if someone could upload this!
<div class="messageTextEndMarker">&nbsp;</div>
</blockquote>
</article>]]></description>
                <author><![CDATA[markiij]]></author>
                </item>

                </channel></rss>